:version 1.10
:name ASF
:units
  mass 1
  length 1
  angle deg
:documentation
  ASF file generated by Kaydara
:root
  axis xyz
  order  tx ty tz rx ry rz
  position 0 0 0
  orientation 0 0 0
:bonedata
  begin
    id 1
    name RightUpLegDummy
    direction -1 2.30186e-007 8.31532e-007
    length 4.46685
    axis 0 0 0 xyz
  end
  begin
    id 2
    name RightUpLeg
    direction -2.30187e-007 -1 1.24343e-010
    length 16.4045
    axis -3.49089 -0.000906625 0.000286804 xyz
    dof rx ry rz
  end
  begin
    id 3
    name RightLeg
    direction -2.30181e-007 -1 -4.17157e-009
    length 17.5097
    axis 3.68512 0.0193738 -0.131023 xyz
    dof rx ry rz
  end
  begin
    id 4
    name RightFoot
    direction 8.31421e-007 -4.51202e-011 1
    length 6.49508
    axis 4.81691e-005 -0.120479 -0.188788 xyz
    dof rx ry rz
  end
  begin
    id 5
    name RightToes
    direction 0.00124746 -0.014064 0.9999
    length 3.85082
    axis 0.000481921 0.542163 -0.142578 xyz
    dof rx ry rz
  end
  begin
    id 6
    name SpineDummy
    direction 0.0717043 0.9409 -0.331007
    length 10.0032
    axis 0 0 0 xyz
  end
  begin
    id 7
    name Spine
    direction 2.30186e-007 1 4.58806e-011
    length 9.84055
    axis -0.001389 0.000121418 2.40972e-006 xyz
    dof rx ry rz
  end
  begin
    id 8
    name Spine1
    direction 0 0 0
    length 0
    axis -0.001389 0.000121451 1.30017e-006 xyz
    dof rx ry rz
  end
  begin
    id 9
    name HEadDummy
    direction -0.00347485 0.950688 -0.310128
    length 8.00997
    axis -0.001389 0.000121451 1.30017e-006 xyz
  end
  begin
    id 10
    name HEad
    direction -0.0222688 0.980941 0.193023
    length 5.12695
    axis -0.001389 0.000121451 1.30017e-006 xyz
    dof rx ry rz
  end
  begin
    id 11
    name LeftShoulder1Dummy
    direction 0.988871 0.146793 -0.0242004
    length 3.5792
    axis -0.001389 0.000121451 1.30017e-006 xyz
  end
  begin
    id 12
    name LeftShoulder1
    direction 0.993832 0.108932 0.020779
    length 4.16823
    axis -0.001389 0.000121451 1.30017e-006 xyz
    dof rx ry rz
  end
  begin
    id 13
    name LeftArm
    direction 1 3.44807e-006 -8.31404e-007
    length 9.91437
    axis -23.1894 0.134784 0.967509 xyz
    dof rx ry rz
  end
  begin
    id 14
    name LeftForeArm
    direction 1 3.44842e-006 -8.31581e-007
    length 9.08575
    axis -9.91835 -0.06569 -0.177793 xyz
    dof rx ry rz
  end
  begin
    id 15
    name LeftHand
    direction 0.992938 -0.0411636 0.11126
    length 5.32135
    axis -0.00960232 -0.00340091 0.185173 xyz
    dof rx ry rz
  end
  begin
    id 16
    name RightShoulderDummy
    direction -0.988871 0.146793 -0.0241962
    length 3.5792
    axis -0.001389 0.000121451 1.30017e-006 xyz
  end
  begin
    id 17
    name RightShoulder
    direction -0.993832 0.108933 0.0207785
    length 4.16823
    axis 0.215806 0.000203643 -0.0068026 xyz
    dof rx ry rz
  end
  begin
    id 18
    name RightArm
    direction -1 3.90912e-006 8.31284e-007
    length 9.91437
    axis -23.2009 -0.134239 -0.964101 xyz
    dof rx ry rz
  end
  begin
    id 19
    name RightForeArm
    direction -1 3.90882e-006 8.31502e-007
    length 9.08575
    axis -9.92322 0.0658061 0.178867 xyz
    dof rx ry rz
  end
  begin
    id 20
    name RightHand
    direction -0.992843 -0.0414603 0.112003
    length 5.28593
    axis -0.00960638 0.00330671 -0.185228 xyz
    dof rx ry rz
  end
  begin
    id 21
    name LeftUpLegDummy
    direction 1 -2.30186e-007 -8.31532e-007
    length 4.46685
    axis 0 0 0 xyz
  end
  begin
    id 22
    name LeftUpLeg
    direction -2.30187e-007 -1 6.00931e-010
    length 16.4045
    axis -3.48766 0.00143442 -0.000524262 xyz
    dof rx ry rz
  end
  begin
    id 23
    name LeftLeg
    direction -2.30187e-007 -1 1.6669e-009
    length 17.5097
    axis 3.68178 -0.00654042 -0.000285133 xyz
    dof rx ry rz
  end
  begin
    id 24
    name LeftFoot
    direction 8.31532e-007 -4.54478e-011 1
    length 6.49508
    axis 1.87233e-006 4.66016e-005 -8.6538e-006 xyz
    dof rx ry rz
  end
  begin
    id 25
    name LeftToes
    direction 0.00818058 -0.00485161 0.999955
    length 3.85048
    axis 1.06247e-005 4.65869e-005 -8.65513e-006 xyz
    dof rx ry rz
  end
:hierarchy
  begin
    root RightUpLegDummy SpineDummy LeftUpLegDummy
    RightUpLegDummy RightUpLeg
    RightUpLeg RightLeg
    RightLeg RightFoot
    RightFoot RightToes
    SpineDummy Spine
    Spine Spine1
    Spine1 HEadDummy LeftShoulder1Dummy RightShoulderDummy
    HEadDummy HEad
    LeftShoulder1Dummy LeftShoulder1
    LeftShoulder1 LeftArm
    LeftArm LeftForeArm
    LeftForeArm LeftHand
    RightShoulderDummy RightShoulder
    RightShoulder RightArm
    RightArm RightForeArm
    RightForeArm RightHand
    LeftUpLegDummy LeftUpLeg
    LeftUpLeg LeftLeg
    LeftLeg LeftFoot
    LeftFoot LeftToes
  end

:SAMPLES-PER-SECOND 30
:FULLY-SPECIFIED
:DEGREES
112
root  -69.0482 26.7862 23.2509 27.9812 41.4309 3.43599
RightUpLeg  -40.4312 -12.5691 9.3801
RightLeg  70.3462 -4.5611 -10.6045
RightFoot  -41.9542 2.63897 7.25362
RightToes  -21.9256 -0.092451 -0.192121
Spine  18.4165 0.481719 5.28029
Spine1  31.2409 2.23522 9.17424
HEad  3.40524 1.13997 -10.7701
LeftShoulder1  0 -2.42657e-020 -4.95415e-022
LeftArm  -26.216 -25.2251 -88.9668
LeftForeArm  33.4715 -16.6605 -3.01536
LeftHand  0.208777 -7.95078 -3.37639
RightShoulder  0 2.42657e-020 1.07489e-018
RightArm  -83.9962 24.137 60.2632
RightForeArm  7.74377 23.8941 4.47003
RightHand  1.4982 21.3416 8.31138
LeftUpLeg  -74.2317 5.2952 -27.1547
LeftLeg  68.3564 6.59642 13.63
LeftFoot  -19.2313 -0.570043 -3.36378
LeftToes  12.2833 2.01279e-006 2.21547e-008
113
root  -68.5474 27.3698 22.315 26.0367 36.9266 2.27643
RightUpLeg  -40.2025 -10.6175 6.69736
RightLeg  69.0029 -4.44724 -9.72563
RightFoot  -38.5412 2.06614 6.28275
RightToes  -24.912 -0.110499 -0.215095
Spine  17.7964 -0.00134201 5.07094
Spine1  30.9162 1.58439 7.86757
HEad  3.29084 6.10903 -12.7836
LeftShoulder1  0 -2.42657e-020 -4.95415e-022
LeftArm  -26.297 -20.7593 -87.9074
LeftForeArm  31.787 -19.2928 -3.52945
LeftHand  0.176872 -7.76671 -2.97775
RightShoulder  0 2.42657e-020 1.07489e-018
RightArm  -76.1074 19.7738 60.7577
RightForeArm  5.98432 32.077 6.33415
RightHand  3.08733 21.9641 16.1868
LeftUpLeg  -74.2537 5.17885 -24.006
LeftLeg  69.4931 4.1323 9.09878
LeftFoot  -11.4577 -0.0598056 -0.596144
LeftToes  4.30125 2.01279e-006 2.21547e-008
114
root  -67.8806 28.0025 21.5585 24.2872 32.9924 2.07053
RightUpLeg  -38.4507 -10.7793 3.49579
RightLeg  66.0904 -3.87564 -7.49333
RightFoot  -35.7387 1.41231 4.75634
RightToes  -29.4655 -0.140257 -0.248234
Spine  17.182 -0.88628 4.41313
Spine1  30.4012 -0.266887 6.40697
HEad  4.05733 10.7116 -14.1502
LeftShoulder1  0 -2.42657e-020 -4.95415e-022
LeftArm  -27.4106 -16.5543 -87.0512
LeftForeArm  30.631 -21.5216 -3.97803
LeftHand  0.143373 -7.74872 -2.48897
RightShoulder  0 2.42657e-020 1.07489e-018
RightArm  -68.5136 16.1419 62.2348
RightForeArm  5.45116 41.4903 8.96785
RightHand  3.14874 22.3429 16.2207
LeftUpLeg  -73.7671 4.8587 -19.3784
LeftLeg  72.0053 -0.498661 -1.27183
LeftFoot  -1.34923 0.0130822 1.11098
LeftToes  -21.5911 2.01279e-006 2.21547e-008
115
root  -67.1665 28.6569 21.0082 22.1686 28.0282 1.07456
RightUpLeg  -35.6946 -9.32092 0.752471
RightLeg  61.3099 -2.81339 -4.5206
RightFoot  -33.2526 0.775245 2.97336
RightToes  -31.9185 -0.157353 -0.265076
Spine  16.1029 -1.36016 3.16651
Spine1  28.8703 -2.05795 5.47442
HEad  6.3276 14.3458 -14.9432
LeftShoulder1  0 -2.42657e-020 -4.95415e-022
LeftArm  -29.1986 -12.0745 -86.3649
LeftForeArm  30.4481 -23.2658 -4.33864
LeftHand  0.175829 -7.94407 -2.9043
RightShoulder  0 2.42657e-020 1.07489e-018
RightArm  -61.2328 11.2848 65.6494
RightForeArm  9.33945 55.4195 14.854
RightHand  2.25728 21.273 12.3507
LeftUpLeg  -72.7002 6.55915 -13.714
LeftLeg  74.7552 -4.45068 -12.7715
LeftFoot  4.96223 0.0205051 -0.473229
LeftToes  -47.0284 2.01279e-006 2.21547e-008
116
root  -66.4824 29.1534 20.5964 20.5293 23.1158 -0.643898
RightUpLeg  -34.2392 -7.80889 -0.610161
RightLeg  57.5638 -1.46505 -2.08149
RightFoot  -30.0855 0.282199 1.4276
RightToes  -35.1893 -0.181239 -0.286367
Spine  15.2988 -1.79085 2.91122
Spine1  27.8654 -3.09893 4.33651
HEad  7.59135 19.1888 -16.4592
LeftShoulder1  0 -2.42657e-020 -4.95415e-022
LeftArm  -30.9591 -7.75625 -85.7062
LeftForeArm  28.2242 -26.1352 -4.95505
LeftHand  0.139251 -7.67681 -2.44741
RightShoulder  0 2.42657e-020 1.07489e-018
RightArm  -53.5476 4.58804 69.2367
RightForeArm  43.4246 74.4636 39.744
RightHand  1.59904 24.1932 7.82299
LeftUpLeg  -71.1586 8.06125 -6.19894
LeftLeg  77.041 -4.17128 -13.7002
LeftFoot  2.95524 0.0112709 -0.436948
LeftToes  -43.8928 2.01279e-006 2.21547e-008
117
root  -65.7731 29.5483 20.2184 19.4369 17.9443 -1.56698
RightUpLeg  -34.4822 -6.80943 -2.64842
RightLeg  56.5453 0.859124 1.06356
RightFoot  -25.5666 -0.164475 -0.34737
RightToes  -41.686 -0.23209 -0.324447
Spine  15.0515 -2.18387 2.4761
Spine1  27.7793 -3.21634 1.71612
HEad  8.2173 24.7852 -17.6779
LeftShoulder1  0 -2.42657e-020 -4.95415e-022
LeftArm  -34.1757 -4.7595 -84.5437
LeftForeArm  25.5816 -29.4713 -5.71222
LeftHand  0.0821243 -7.31986 -1.65535
RightShoulder  0 2.42657e-020 1.07489e-018
RightArm  -43.2636 -1.34255 71.5558
RightForeArm  132.977 78.622 117.391
RightHand  -0.349975 23.6352 -1.30288
LeftUpLeg  -67.8682 9.10419 1.38629
LeftLeg  76.8099 -2.40111 -7.88743
LeftFoot  1.27631 0.00131359 -0.117943
LeftToes  -37.1326 2.01279e-006 2.21547e-008
118
root  -65.1565 29.7726 19.9132 19.2214 11.8869 -2.19303
RightUpLeg  -36.6339 -3.68219 -4.82318
RightLeg  57.4852 1.06323 1.37748
RightFoot  -20.893 -0.113541 -0.238273
RightToes  -47.5702 -0.281602 -0.353772
Spine  14.6311 -2.56095 1.60584
Spine1  27.1069 -3.57275 -0.961021
HEad  8.39829 30.013 -18.8507
LeftShoulder1  0 -2.42657e-020 -4.95415e-022
LeftArm  -37.8795 -1.69266 -82.8907
LeftForeArm  23.9319 -32.6489 -6.48233
LeftHand  0.0148752 -6.60195 -0.62851
RightShoulder  0 2.42657e-020 1.07489e-018
RightArm  -28.3717 -4.1756 72.5741
RightForeArm  169.248 74.3422 140.327
RightHand  -4.35231 25.3793 -18.7922
LeftUpLeg  -63.6589 11.3571 8.55404
LeftLeg  73.9308 -1.59686 -4.45718
LeftFoot  0.36075 0.000369278 -0.11731
LeftToes  -30.2862 2.01279e-006 2.21547e-008
119
root  -64.44 29.5612 19.6219 19.999 6.57201 -3.42338
RightUpLeg  -39.6295 -0.485233 -7.28447
RightLeg  60.3393 -1.19115 -1.89899
RightFoot  -18.3379 0.137566 1.22987
RightToes  -41.1612 -0.227825 -0.321587
Spine  13.929 -2.69695 1.3225
Spine1  25.8548 -3.91186 -1.59481
HEad  7.69369 32.9173 -20.3714
LeftShoulder1  0 -2.42657e-020 -4.95415e-022
LeftArm  -40.3387 0.213729 -82.106
LeftForeArm  24.1945 -34.8767 -7.05639
LeftHand  -0.0416738 -6.94323 0.317303
RightShoulder  0 2.42657e-020 1.07489e-018
RightArm  -15.1485 -5.24955 71.1648
RightForeArm  -176.254 72.8567 144.572
RightHand  -6.59711 26.054 -27.6124
LeftUpLeg  -60.7113 11.5137 16.5379
LeftLeg  71.1565 -0.335571 -0.825823
LeftFoot  -1.4511 -0.00311662 -0.246111
LeftToes  -25.1801 2.01279e-006 2.21547e-008
120
root  -63.6998 28.8352 19.1348 20.2473 2.47624 -4.76272
RightUpLeg  -41.5901 4.07252 -11.1502
RightLeg  62.311 -0.112407 -0.286172
RightFoot  -16.1507 0.0540585 0.758589
RightToes  -48.015 -0.285464 -0.35578
Spine  13.6571 -2.53838 1.63333
Spine1  25.3423 -4.04186 -0.40976
HEad  7.6134 33.1963 -21.6327
LeftShoulder1  0 -2.42657e-020 -4.95415e-022
LeftArm  -40.8472 -0.282758 -81.9156
LeftForeArm  24.4383 -36.3582 -7.4562
LeftHand  0.00269762 -4.6841 -0.436558
RightShoulder  0 2.42657e-020 1.07489e-018
RightArm  -5.00829 -1.45185 69.1988
RightForeArm  179.867 77.1113 128.926
RightHand  -8.19558 25.4123 -34.8924
LeftUpLeg  -58.1571 11.0926 24.4873
LeftLeg  68.2629 -0.205132 -0.446287
LeftFoot  -2.91802 -0.0118342 -0.464639
LeftToes  -21.4294 2.01279e-006 2.21547e-008
121
root  -62.9102 27.7187 18.537 18.7678 -2.93976 -6.35739
RightUpLeg  -43.1432 9.0516 -14.9093
RightLeg  62.9274 2.88829 4.73573
RightFoot  -19.3459 -0.239136 -1.02541
RightToes  -55.558 -0.353105 -0.385162
Spine  14.2622 -1.46229 1.70936
Spine1  26.2419 -2.50222 0.840781
HEad  8.56183 32.1366 -21.4894
LeftShoulder1  0 -2.42657e-020 -4.95415e-022
LeftArm  -40.2795 -2.92056 -81.4718
LeftForeArm  24.4222 -37.4871 -7.77159
LeftHand  -0.0167183 -3.86432 0.125837
RightShoulder  0 2.42657e-020 1.07489e-018
RightArm  -0.212187 6.50302 69.8843
RightForeArm  115.032 78.2001 57.9087
RightHand  -8.91528 25.2851 -37.9684
LeftUpLeg  -53.8735 11.6399 31.9001
LeftLeg  65.8952 -0.683104 -1.30935
LeftFoot  -3.90095 -0.0237762 -0.698163
LeftToes  -21.8149 2.01279e-006 2.21547e-008
122
root  -61.6869 26.3772 18.017 17.8555 -4.49143 -6.16162
RightUpLeg  -44.7522 4.58236 -17.2657
RightLeg  65.8749 4.13842 7.66787
RightFoot  -23.8586 -0.582046 -2.37704
RightToes  -60.452 -0.398817 -0.399365
Spine  15.2331 -1.16071 2.33202
Spine1  27.584 -1.77457 1.88379
HEad  9.13717 30.4066 -21.3323
LeftShoulder1  0 -2.42657e-020 -4.95415e-022
LeftArm  -40.3079 -7.53561 -82.372
LeftForeArm  24.5706 -38.3451 -8.01796
LeftHand  -0.0491861 -8.08672 0.326139
RightShoulder  0 2.42657e-020 1.07489e-018
RightArm  0.15646 16.2575 71.4907
RightForeArm  76.0044 61.4034 18.8425
RightHand  -8.38378 24.9415 -36.3092
LeftUpLeg  -53.9158 8.46303 36.0481
LeftLeg  64.6841 -1.05748 -1.9197
LeftFoot  -3.53252 -0.0304747 -0.98824
LeftToes  -25.3322 2.01279e-006 2.21547e-008
123
root  -60.3918 24.7242 17.5789 17.9572 -6.69662 -6.02851
RightUpLeg  -48.2798 2.52184 -20.344
RightLeg  69.7874 3.02984 6.64031
RightFoot  -27.8942 -0.491386 -1.60093
RightToes  -56.8782 -0.365314 -0.389377
Spine  17.1383 0.72838 3.46391
Spine1  30.3519 3.3498 1.15136
HEad  9.31357 28.1707 -20.3543
LeftShoulder1  0 -2.42657e-020 -4.95415e-022
LeftArm  -38.5082 -15.3257 -84.2049
LeftForeArm  22.5415 -38.7463 -8.13529
LeftHand  -0.0390931 -7.0179 0.267834
RightShoulder  0 2.42657e-020 1.07489e-018
RightArm  -5.22725 25.5929 72.2511
RightForeArm  68.6945 43.3783 9.52611
RightHand  -7.70921 25.3182 -33.0333
LeftUpLeg  -55.6424 7.49164 38.9079
LeftLeg  66.5906 -2.99991 -5.85511
LeftFoot  -4.52609 -0.0495161 -1.25295
LeftToes  -50.5152 2.01279e-006 2.21547e-008
124
root  -59.1942 23.16 17.3145 18.0453 -9.3558 -6.44406
RightUpLeg  -52.3478 6.3563 -25.1043
RightLeg  73.7192 2.28592 6.04803
RightFoot  -30.1458 -0.311526 -0.779176
RightToes  -58.577 -0.381162 -0.390242
Spine  19.2114 2.64337 4.70019
Spine1  33.3809 7.79011 1.82812
HEad  10.9488 25.136 -18.6048
LeftShoulder1  0 -2.42657e-020 -4.95415e-022
LeftArm  -35.6665 -22.7431 -87.1952
LeftForeArm  20.7376 -38.3374 -8.01558
LeftHand  -0.074243 -6.87639 0.866606
RightShoulder  0 2.42657e-020 1.07489e-018
RightArm  -18.3829 35.1624 71.137
RightForeArm  68.2364 26.0543 4.87282
RightHand  -5.84021 23.6377 -27.0362
LeftUpLeg  -57.7122 8.39274 41.0781
LeftLeg  73.443 -4.26067 -11.4112
LeftFoot  -10.9696 -0.0447731 -0.46629
LeftToes  -59.138 2.01279e-006 2.21547e-008
